<svg xmlns="http://www.w3.org/2000/svg" width="1200" height="900" viewBox="0 0 1200 900">
<rect width="100%" height="100%" fill="#0f0f1a"/>
<line x1="600.0" y1="60.0" x2="627.8" y2="61.0" stroke="#3a3a5a" stroke-width="0.5" stroke-opacity="0.6"/>
<line x1="600.0" y1="60.0" x2="655.5" y2="64.0" stroke="#3a3a5a" stroke-width="0.5" stroke-opacity="0.6"/>
<line x1="682.9" y1="68.9" x2="709.9" y2="75.8" stroke="#3a3a5a" stroke-width="0.5" stroke-opacity="0.6"/>
<line x1="682.9" y1="68.9" x2="736.3" y2="84.6" stroke="#3a3a5a" stroke-width="0.5" stroke-opacity="0.6"/>
<line x1="682.9" y1="68.9" x2="762.0" y2="95.2" stroke="#3a3a5a" stroke-width="0.5" stroke-opacity="0.6"/>
<line x1="786.9" y1="107.7" x2="810.8" y2="121.9" stroke="#3a3a5a" stroke-width="0.5" stroke-opacity="0.6"/>
<line x1="786.9" y1="107.7" x2="833.7" y2="137.8" stroke="#3a3a5a" stroke-width="0.5" stroke-opacity="0.6"/>
<line x1="786.9" y1="107.7" x2="855.4" y2="155.3" stroke="#3a3a5a" stroke-width="0.5" stroke-opacity="0.6"/>
<line x1="786.9" y1="107.7" x2="875.8" y2="174.2" stroke="#3a3a5a" stroke-width="0.5" stroke-opacity="0.6"/>
<line x1="786.9" y1="107.7" x2="894.7" y2="194.6" stroke="#3a3a5a" stroke-width="0.5" stroke-opacity="0.6"/>
<line x1="894.7" y1="194.6" x2="912.2" y2="216.3" stroke="#3a3a5a" stroke-width="0.5" stroke-opacity="0.6"/>
<line x1="894.7" y1="194.6" x2="928.1" y2="239.2" stroke="#3a3a5a" stroke-width="0.5" stroke-opacity="0.6"/>
<line x1="894.7" y1="194.6" x2="942.3" y2="263.1" stroke="#3a3a5a" stroke-width="0.5" stroke-opacity="0.6"/>
<line x1="894.7" y1="194.6" x2="954.8" y2="288.0" stroke="#3a3a5a" stroke-width="0.5" stroke-opacity="0.6"/>
<line x1="786.9" y1="107.7" x2="965.4" y2="313.7" stroke="#3a3a5a" stroke-width="0.5" stroke-opacity="0.6"/>
<line x1="965.4" y1="313.7" x2="974.2" y2="340.1" stroke="#3a3a5a" stroke-width="0.5" stroke-opacity="0.6"/>
<line x1="965.4" y1="313.7" x2="981.1" y2="367.1" stroke="#3a3a5a" stroke-width="0.5" stroke-opacity="0.6"/>
<line x1="965.4" y1="313.7" x2="986.0" y2="394.5" stroke="#3a3a5a" stroke-width="0.5" stroke-opacity="0.6"/>
<line x1="965.4" y1="313.7" x2="989.0" y2="422.2" stroke="#3a3a5a" stroke-width="0.5" stroke-opacity="0.6"/>
<line x1="965.4" y1="313.7" x2="990.0" y2="450.0" stroke="#3a3a5a" stroke-width="0.5" stroke-opacity="0.6"/>
<line x1="965.4" y1="313.7" x2="989.0" y2="477.8" stroke="#3a3a5a" stroke-width="0.5" stroke-opacity="0.6"/>
<line x1="981.1" y1="367.1" x2="974.2" y2="340.1" stroke="#3a3a5a" stroke-width="0.5" stroke-opacity="0.6"/>
<line x1="989.0" y1="477.8" x2="974.2" y2="340.1" stroke="#3a3a5a" stroke-width="0.5" stroke-opacity="0.6"/>
<line x1="986.0" y1="505.5" x2="981.1" y2="532.9" stroke="#3a3a5a" stroke-width="0.5" stroke-opacity="0.6"/>
<line x1="986.0" y1="505.5" x2="974.2" y2="559.9" stroke="#3a3a5a" stroke-width="0.5" stroke-opacity="0.6"/>
<line x1="986.0" y1="505.5" x2="965.4" y2="586.3" stroke="#3a3a5a" stroke-width="0.5" stroke-opacity="0.6"/>
<line x1="986.0" y1="505.5" x2="954.8" y2="612.0" stroke="#3a3a5a" stroke-width="0.5" stroke-opacity="0.6"/>
<line x1="986.0" y1="505.5" x2="942.3" y2="636.9" stroke="#3a3a5a" stroke-width="0.5" stroke-opacity="0.6"/>
<line x1="986.0" y1="505.5" x2="928.1" y2="660.8" stroke="#3a3a5a" stroke-width="0.5" stroke-opacity="0.6"/>
<line x1="912.2" y1="683.7" x2="894.7" y2="705.4" stroke="#3a3a5a" stroke-width="0.5" stroke-opacity="0.6"/>
<line x1="912.2" y1="683.7" x2="875.8" y2="725.8" stroke="#3a3a5a" stroke-width="0.5" stroke-opacity="0.6"/>
<line x1="855.4" y1="744.7" x2="833.7" y2="762.2" stroke="#3a3a5a" stroke-width="0.5" stroke-opacity="0.6"/>
<line x1="810.8" y1="778.1" x2="786.9" y2="792.3" stroke="#3a3a5a" stroke-width="0.5" stroke-opacity="0.6"/>
<line x1="810.8" y1="778.1" x2="762.0" y2="804.8" stroke="#3a3a5a" stroke-width="0.5" stroke-opacity="0.6"/>
<line x1="810.8" y1="778.1" x2="736.3" y2="815.4" stroke="#3a3a5a" stroke-width="0.5" stroke-opacity="0.6"/>
<line x1="810.8" y1="778.1" x2="709.9" y2="824.2" stroke="#3a3a5a" stroke-width="0.5" stroke-opacity="0.6"/>
<line x1="810.8" y1="778.1" x2="682.9" y2="831.1" stroke="#3a3a5a" stroke-width="0.5" stroke-opacity="0.6"/>
<line x1="810.8" y1="778.1" x2="655.5" y2="836.0" stroke="#3a3a5a" stroke-width="0.5" stroke-opacity="0.6"/>
<line x1="655.5" y1="836.0" x2="627.8" y2="839.0" stroke="#3a3a5a" stroke-width="0.5" stroke-opacity="0.6"/>
<line x1="655.5" y1="836.0" x2="600.0" y2="840.0" stroke="#3a3a5a" stroke-width="0.5" stroke-opacity="0.6"/>
<line x1="655.5" y1="836.0" x2="572.2" y2="839.0" stroke="#3a3a5a" stroke-width="0.5" stroke-opacity="0.6"/>
<line x1="655.5" y1="836.0" x2="544.5" y2="836.0" stroke="#3a3a5a" stroke-width="0.5" stroke-opacity="0.6"/>
<line x1="655.5" y1="836.0" x2="517.1" y2="831.1" stroke="#3a3a5a" stroke-width="0.5" stroke-opacity="0.6"/>
<line x1="655.5" y1="836.0" x2="490.1" y2="824.2" stroke="#3a3a5a" stroke-width="0.5" stroke-opacity="0.6"/>
<line x1="600.0" y1="840.0" x2="627.8" y2="839.0" stroke="#3a3a5a" stroke-width="0.5" stroke-opacity="0.6"/>
<line x1="463.7" y1="815.4" x2="438.0" y2="804.8" stroke="#3a3a5a" stroke-width="0.5" stroke-opacity="0.6"/>
<line x1="463.7" y1="815.4" x2="413.1" y2="792.3" stroke="#3a3a5a" stroke-width="0.5" stroke-opacity="0.6"/>
<line x1="463.7" y1="815.4" x2="389.2" y2="778.1" stroke="#3a3a5a" stroke-width="0.5" stroke-opacity="0.6"/>
<line x1="389.2" y1="778.1" x2="366.3" y2="762.2" stroke="#3a3a5a" stroke-width="0.5" stroke-opacity="0.6"/>
<line x1="389.2" y1="778.1" x2="344.6" y2="744.7" stroke="#3a3a5a" stroke-width="0.5" stroke-opacity="0.6"/>
<line x1="389.2" y1="778.1" x2="324.2" y2="725.8" stroke="#3a3a5a" stroke-width="0.5" stroke-opacity="0.6"/>
<line x1="305.3" y1="705.4" x2="287.8" y2="683.7" stroke="#3a3a5a" stroke-width="0.5" stroke-opacity="0.6"/>
<line x1="305.3" y1="705.4" x2="271.9" y2="660.8" stroke="#3a3a5a" stroke-width="0.5" stroke-opacity="0.6"/>
<line x1="305.3" y1="705.4" x2="257.7" y2="636.9" stroke="#3a3a5a" stroke-width="0.5" stroke-opacity="0.6"/>
<line x1="305.3" y1="705.4" x2="245.2" y2="612.0" stroke="#3a3a5a" stroke-width="0.5" stroke-opacity="0.6"/>
<line x1="305.3" y1="705.4" x2="234.6" y2="586.3" stroke="#3a3a5a" stroke-width="0.5" stroke-opacity="0.6"/>
<line x1="305.3" y1="705.4" x2="225.8" y2="559.9" stroke="#3a3a5a" stroke-width="0.5" stroke-opacity="0.6"/>
<line x1="305.3" y1="705.4" x2="218.9" y2="532.9" stroke="#3a3a5a" stroke-width="0.5" stroke-opacity="0.6"/>
<line x1="305.3" y1="705.4" x2="214.0" y2="505.5" stroke="#3a3a5a" stroke-width="0.5" stroke-opacity="0.6"/>
<line x1="305.3" y1="705.4" x2="211.0" y2="477.8" stroke="#3a3a5a" stroke-width="0.5" stroke-opacity="0.6"/>
<line x1="305.3" y1="705.4" x2="210.0" y2="450.0" stroke="#3a3a5a" stroke-width="0.5" stroke-opacity="0.6"/>
<line x1="305.3" y1="705.4" x2="211.0" y2="422.2" stroke="#3a3a5a" stroke-width="0.5" stroke-opacity="0.6"/>
<line x1="305.3" y1="705.4" x2="214.0" y2="394.5" stroke="#3a3a5a" stroke-width="0.5" stroke-opacity="0.6"/>
<line x1="305.3" y1="705.4" x2="218.9" y2="367.1" stroke="#3a3a5a" stroke-width="0.5" stroke-opacity="0.6"/>
<line x1="305.3" y1="705.4" x2="225.8" y2="340.1" stroke="#3a3a5a" stroke-width="0.5" stroke-opacity="0.6"/>
<line x1="305.3" y1="705.4" x2="234.6" y2="313.7" stroke="#3a3a5a" stroke-width="0.5" stroke-opacity="0.6"/>
<line x1="305.3" y1="705.4" x2="245.2" y2="288.0" stroke="#3a3a5a" stroke-width="0.5" stroke-opacity="0.6"/>
<line x1="305.3" y1="705.4" x2="257.7" y2="263.1" stroke="#3a3a5a" stroke-width="0.5" stroke-opacity="0.6"/>
<line x1="305.3" y1="705.4" x2="271.9" y2="239.2" stroke="#3a3a5a" stroke-width="0.5" stroke-opacity="0.6"/>
<line x1="305.3" y1="705.4" x2="287.8" y2="216.3" stroke="#3a3a5a" stroke-width="0.5" stroke-opacity="0.6"/>
<line x1="305.3" y1="705.4" x2="305.3" y2="194.6" stroke="#3a3a5a" stroke-width="0.5" stroke-opacity="0.6"/>
<line x1="305.3" y1="705.4" x2="324.2" y2="174.2" stroke="#3a3a5a" stroke-width="0.5" stroke-opacity="0.6"/>
<line x1="305.3" y1="705.4" x2="344.6" y2="155.3" stroke="#3a3a5a" stroke-width="0.5" stroke-opacity="0.6"/>
<line x1="305.3" y1="705.4" x2="366.3" y2="137.8" stroke="#3a3a5a" stroke-width="0.5" stroke-opacity="0.6"/>
<line x1="305.3" y1="705.4" x2="389.2" y2="121.9" stroke="#3a3a5a" stroke-width="0.5" stroke-opacity="0.6"/>
<line x1="305.3" y1="705.4" x2="413.1" y2="107.7" stroke="#3a3a5a" stroke-width="0.5" stroke-opacity="0.6"/>
<line x1="305.3" y1="705.4" x2="438.0" y2="95.2" stroke="#3a3a5a" stroke-width="0.5" stroke-opacity="0.6"/>
<line x1="305.3" y1="705.4" x2="463.7" y2="84.6" stroke="#3a3a5a" stroke-width="0.5" stroke-opacity="0.6"/>
<line x1="305.3" y1="705.4" x2="490.1" y2="75.8" stroke="#3a3a5a" stroke-width="0.5" stroke-opacity="0.6"/>
<line x1="305.3" y1="705.4" x2="517.1" y2="68.9" stroke="#3a3a5a" stroke-width="0.5" stroke-opacity="0.6"/>
<line x1="305.3" y1="705.4" x2="544.5" y2="64.0" stroke="#3a3a5a" stroke-width="0.5" stroke-opacity="0.6"/>
<line x1="305.3" y1="705.4" x2="572.2" y2="61.0" stroke="#3a3a5a" stroke-width="0.5" stroke-opacity="0.6"/>
<line x1="225.8" y1="340.1" x2="257.7" y2="263.1" stroke="#3a3a5a" stroke-width="0.5" stroke-opacity="0.6"/>
<line x1="225.8" y1="340.1" x2="305.3" y2="194.6" stroke="#3a3a5a" stroke-width="0.5" stroke-opacity="0.6"/>
<line x1="225.8" y1="340.1" x2="344.6" y2="155.3" stroke="#3a3a5a" stroke-width="0.5" stroke-opacity="0.6"/>
<line x1="225.8" y1="340.1" x2="389.2" y2="121.9" stroke="#3a3a5a" stroke-width="0.5" stroke-opacity="0.6"/>
<line x1="225.8" y1="340.1" x2="463.7" y2="84.6" stroke="#3a3a5a" stroke-width="0.5" stroke-opacity="0.6"/>
<line x1="225.8" y1="340.1" x2="438.0" y2="95.2" stroke="#3a3a5a" stroke-width="0.5" stroke-opacity="0.6"/>
<line x1="225.8" y1="340.1" x2="413.1" y2="107.7" stroke="#3a3a5a" stroke-width="0.5" stroke-opacity="0.6"/>
<line x1="225.8" y1="340.1" x2="490.1" y2="75.8" stroke="#3a3a5a" stroke-width="0.5" stroke-opacity="0.6"/>
<line x1="225.8" y1="340.1" x2="517.1" y2="68.9" stroke="#3a3a5a" stroke-width="0.5" stroke-opacity="0.6"/>
<line x1="225.8" y1="340.1" x2="544.5" y2="64.0" stroke="#3a3a5a" stroke-width="0.5" stroke-opacity="0.6"/>
<line x1="225.8" y1="340.1" x2="572.2" y2="61.0" stroke="#3a3a5a" stroke-width="0.5" stroke-opacity="0.6"/>
<line x1="257.7" y1="263.1" x2="245.2" y2="288.0" stroke="#3a3a5a" stroke-width="0.5" stroke-opacity="0.6"/>
<line x1="257.7" y1="263.1" x2="234.6" y2="313.7" stroke="#3a3a5a" stroke-width="0.5" stroke-opacity="0.6"/>
<line x1="257.7" y1="263.1" x2="287.8" y2="216.3" stroke="#3a3a5a" stroke-width="0.5" stroke-opacity="0.6"/>
<line x1="257.7" y1="263.1" x2="271.9" y2="239.2" stroke="#3a3a5a" stroke-width="0.5" stroke-opacity="0.6"/>
<line x1="305.3" y1="194.6" x2="324.2" y2="174.2" stroke="#3a3a5a" stroke-width="0.5" stroke-opacity="0.6"/>
<line x1="344.6" y1="155.3" x2="366.3" y2="137.8" stroke="#3a3a5a" stroke-width="0.5" stroke-opacity="0.6"/>
<circle cx="600.0" cy="60.0" r="6" fill="#F28E2B" opacity="0.85"><title>error</title></circle>
<circle cx="627.8" cy="61.0" r="6" fill="#F28E2B" opacity="0.85"><title>thiserror::Error</title></circle>
<circle cx="655.5" cy="64.0" r="6" fill="#F28E2B" opacity="0.85"><title>SmithError</title></circle>
<circle cx="682.9" cy="68.9" r="6" fill="#4E79A7" opacity="0.85"><title>lib</title></circle>
<circle cx="709.9" cy="75.8" r="6" fill="#4E79A7" opacity="0.85"><title>pub use context::{ContextValue, ExecutionContext}</title></circle>
<circle cx="736.3" cy="84.6" r="6" fill="#4E79A7" opacity="0.85"><title>pub use error::{SmithError, SmithResult}</title></circle>
<circle cx="762.0" cy="95.2" r="6" fill="#4E79A7" opacity="0.85"><title>pub use tool::{Tool, ToolConfig, ToolResult}</title></circle>
<circle cx="786.9" cy="107.7" r="6" fill="#FF9DA7" opacity="0.85"><title>context</title></circle>
<circle cx="810.8" cy="121.9" r="6" fill="#FF9DA7" opacity="0.85"><title>std::any::Any</title></circle>
<circle cx="833.7" cy="137.8" r="6" fill="#FF9DA7" opacity="0.85"><title>std::collections::HashMap</title></circle>
<circle cx="855.4" cy="155.3" r="6" fill="#FF9DA7" opacity="0.85"><title>std::sync::Arc</title></circle>
<circle cx="875.8" cy="174.2" r="6" fill="#FF9DA7" opacity="0.85"><title>crate::error::{SmithError, SmithResult}</title></circle>
<circle cx="894.7" cy="194.6" r="6" fill="#BAB0AC" opacity="0.85"><title>ContextValue</title></circle>
<circle cx="912.2" cy="216.3" r="6" fill="#BAB0AC" opacity="0.85"><title>.try_as_string()</title></circle>
<circle cx="928.1" cy="239.2" r="6" fill="#BAB0AC" opacity="0.85"><title>.try_as_number()</title></circle>
<circle cx="942.3" cy="263.1" r="6" fill="#BAB0AC" opacity="0.85"><title>.try_as_boolean()</title></circle>
<circle cx="954.8" cy="288.0" r="6" fill="#BAB0AC" opacity="0.85"><title>.try_as_custom()</title></circle>
<circle cx="965.4" cy="313.7" r="6" fill="#EDC948" opacity="0.85"><title>ExecutionContext</title></circle>
<circle cx="974.2" cy="340.1" r="6" fill="#EDC948" opacity="0.85"><title>.new()</title></circle>
<circle cx="981.1" cy="367.1" r="6" fill="#EDC948" opacity="0.85"><title>.push_scope()</title></circle>
<circle cx="986.0" cy="394.5" r="6" fill="#EDC948" opacity="0.85"><title>.pop_scope()</title></circle>
<circle cx="989.0" cy="422.2" r="6" fill="#EDC948" opacity="0.85"><title>.set()</title></circle>
<circle cx="990.0" cy="450.0" r="6" fill="#EDC948" opacity="0.85"><title>.get()</title></circle>
<circle cx="989.0" cy="477.8" r="6" fill="#EDC948" opacity="0.85"><title>.default()</title></circle>
<circle cx="986.0" cy="505.5" r="6" fill="#59A14F" opacity="0.85"><title>tool</title></circle>
<circle cx="981.1" cy="532.9" r="6" fill="#59A14F" opacity="0.85"><title>async_trait::async_trait</title></circle>
<circle cx="974.2" cy="559.9" r="6" fill="#59A14F" opacity="0.85"><title>serde_json::Value</title></circle>
<circle cx="965.4" cy="586.3" r="6" fill="#59A14F" opacity="0.85"><title>tokio_util::sync::CancellationToken</title></circle>
<circle cx="954.8" cy="612.0" r="6" fill="#59A14F" opacity="0.85"><title>crate::context::ExecutionContext</title></circle>
<circle cx="942.3" cy="636.9" r="6" fill="#59A14F" opacity="0.85"><title>crate::error::SmithResult</title></circle>
<circle cx="928.1" cy="660.8" r="6" fill="#59A14F" opacity="0.85"><title>Tool</title></circle>
<circle cx="912.2" cy="683.7" r="6" fill="#E15759" opacity="0.85"><title>lib</title></circle>
<circle cx="894.7" cy="705.4" r="6" fill="#E15759" opacity="0.85"><title>pub use element::SafeUIElement</title></circle>
<circle cx="875.8" cy="725.8" r="6" fill="#E15759" opacity="0.85"><title>pub use tools::ClickTool</title></circle>
<circle cx="855.4" cy="744.7" r="6" fill="#76B7B2" opacity="0.85"><title>mod</title></circle>
<circle cx="833.7" cy="762.2" r="6" fill="#76B7B2" opacity="0.85"><title>pub use click::ClickTool</title></circle>
<circle cx="810.8" cy="778.1" r="6" fill="#B07AA1" opacity="0.85"><title>click</title></circle>
<circle cx="786.9" cy="792.3" r="6" fill="#B07AA1" opacity="0.85"><title>async_trait::async_trait</title></circle>
<circle cx="762.0" cy="804.8" r="6" fill="#B07AA1" opacity="0.85"><title>serde_json::{Value, json}</title></circle>
<circle cx="736.3" cy="815.4" r="6" fill="#B07AA1" opacity="0.85"><title>smith_core::{ExecutionContext, SmithError, SmithResult, Tool, ToolConfig, ToolResult}</title></circle>
<circle cx="709.9" cy="824.2" r="6" fill="#B07AA1" opacity="0.85"><title>tokio_util::sync::CancellationToken</title></circle>
<circle cx="682.9" cy="831.1" r="6" fill="#B07AA1" opacity="0.85"><title>crate::element::SafeUIElement</title></circle>
<circle cx="655.5" cy="836.0" r="6" fill="#E15759" opacity="0.85"><title>ClickTool</title></circle>
<circle cx="627.8" cy="839.0" r="6" fill="#E15759" opacity="0.85"><title>.new()</title></circle>
<circle cx="600.0" cy="840.0" r="6" fill="#E15759" opacity="0.85"><title>.default()</title></circle>
<circle cx="572.2" cy="839.0" r="6" fill="#E15759" opacity="0.85"><title>.name()</title></circle>
<circle cx="544.5" cy="836.0" r="6" fill="#E15759" opacity="0.85"><title>.description()</title></circle>
<circle cx="517.1" cy="831.1" r="6" fill="#E15759" opacity="0.85"><title>.schema()</title></circle>
<circle cx="490.1" cy="824.2" r="6" fill="#E15759" opacity="0.85"><title>.execute()</title></circle>
<circle cx="463.7" cy="815.4" r="6" fill="#76B7B2" opacity="0.85"><title>element</title></circle>
<circle cx="438.0" cy="804.8" r="6" fill="#76B7B2" opacity="0.85"><title>std::sync::Arc</title></circle>
<circle cx="413.1" cy="792.3" r="6" fill="#76B7B2" opacity="0.85"><title>uiautomation::UIElement</title></circle>
<circle cx="389.2" cy="778.1" r="6" fill="#76B7B2" opacity="0.85"><title>SafeUIElement</title></circle>
<circle cx="366.3" cy="762.2" r="6" fill="#76B7B2" opacity="0.85"><title>.new()</title></circle>
<circle cx="344.6" cy="744.7" r="6" fill="#76B7B2" opacity="0.85"><title>.inner()</title></circle>
<circle cx="324.2" cy="725.8" r="6" fill="#76B7B2" opacity="0.85"><title>.clone()</title></circle>
<circle cx="305.3" cy="705.4" r="6" fill="#4E79A7" opacity="0.85"><title>main</title></circle>
<circle cx="287.8" cy="683.7" r="6" fill="#4E79A7" opacity="0.85"><title>anyhow::Result</title></circle>
<circle cx="271.9" cy="660.8" r="6" fill="#4E79A7" opacity="0.85"><title>chrono::Local</title></circle>
<circle cx="257.7" cy="636.9" r="6" fill="#4E79A7" opacity="0.85"><title>clap::Parser</title></circle>
<circle cx="245.2" cy="612.0" r="6" fill="#4E79A7" opacity="0.85"><title>ignore::gitignore::GitignoreBuilder</title></circle>
<circle cx="234.6" cy="586.3" r="6" fill="#4E79A7" opacity="0.85"><title>std::collections::{BTreeMap, HashMap}</title></circle>
<circle cx="225.8" cy="559.9" r="6" fill="#4E79A7" opacity="0.85"><title>std::path::{Path, PathBuf}</title></circle>
<circle cx="218.9" cy="532.9" r="6" fill="#4E79A7" opacity="0.85"><title>walkdir::WalkDir</title></circle>
<circle cx="214.0" cy="505.5" r="6" fill="#4E79A7" opacity="0.85"><title>Cli</title></circle>
<circle cx="211.0" cy="477.8" r="6" fill="#4E79A7" opacity="0.85"><title>GraphifyArtifacts</title></circle>
<circle cx="210.0" cy="450.0" r="6" fill="#4E79A7" opacity="0.85"><title>FileEntry</title></circle>
<circle cx="211.0" cy="422.2" r="6" fill="#4E79A7" opacity="0.85"><title>ProjectStats</title></circle>
<circle cx="214.0" cy="394.5" r="6" fill="#4E79A7" opacity="0.85"><title>TreeNode</title></circle>
<circle cx="218.9" cy="367.1" r="6" fill="#4E79A7" opacity="0.85"><title>MarkdownContext</title></circle>
<circle cx="225.8" cy="340.1" r="6" fill="#F28E2B" opacity="0.85"><title>main()</title></circle>
<circle cx="234.6" cy="313.7" r="6" fill="#9C755F" opacity="0.85"><title>is_always_excluded_file()</title></circle>
<circle cx="245.2" cy="288.0" r="6" fill="#9C755F" opacity="0.85"><title>is_always_excluded_dir()</title></circle>
<circle cx="257.7" cy="263.1" r="6" fill="#9C755F" opacity="0.85"><title>collect_files()</title></circle>
<circle cx="271.9" cy="239.2" r="6" fill="#9C755F" opacity="0.85"><title>detect_language()</title></circle>
<circle cx="287.8" cy="216.3" r="6" fill="#9C755F" opacity="0.85"><title>is_binary_extension()</title></circle>
<circle cx="305.3" cy="194.6" r="6" fill="#4E79A7" opacity="0.85"><title>build_tree()</title></circle>
<circle cx="324.2" cy="174.2" r="6" fill="#4E79A7" opacity="0.85"><title>render_tree()</title></circle>
<circle cx="344.6" cy="155.3" r="6" fill="#4E79A7" opacity="0.85"><title>build_stats()</title></circle>
<circle cx="366.3" cy="137.8" r="6" fill="#4E79A7" opacity="0.85"><title>extract_crate_name()</title></circle>
<circle cx="389.2" cy="121.9" r="6" fill="#F28E2B" opacity="0.85"><title>collect_todos()</title></circle>
<circle cx="413.1" cy="107.7" r="6" fill="#F28E2B" opacity="0.85"><title>load_graphify_artifacts()</title></circle>
<circle cx="438.0" cy="95.2" r="6" fill="#F28E2B" opacity="0.85"><title>run_graphify_build()</title></circle>
<circle cx="463.7" cy="84.6" r="6" fill="#F28E2B" opacity="0.85"><title>build_graph()</title></circle>
<circle cx="490.1" cy="75.8" r="6" fill="#F28E2B" opacity="0.85"><title>build_git_log()</title></circle>
<circle cx="517.1" cy="68.9" r="6" fill="#F28E2B" opacity="0.85"><title>build_env_info()</title></circle>
<circle cx="544.5" cy="64.0" r="6" fill="#F28E2B" opacity="0.85"><title>read_workspace_cargo()</title></circle>
<circle cx="572.2" cy="61.0" r="6" fill="#F28E2B" opacity="0.85"><title>format_markdown()</title></circle>
</svg>
